{
	"patcher" : 	{
		"fileversion" : 1,
		"appversion" : 		{
			"major" : 8,
			"minor" : 5,
			"revision" : 3,
			"architecture" : "x64",
			"modernui" : 1
		}
,
		"classnamespace" : "box",
		"rect" : [ 364.0, 404.0, 1513.0, 926.0 ],
		"bglocked" : 0,
		"openinpresentation" : 0,
		"default_fontsize" : 12.0,
		"default_fontface" : 0,
		"default_fontname" : "Arial",
		"gridonopen" : 1,
		"gridsize" : [ 15.0, 15.0 ],
		"gridsnaponopen" : 1,
		"objectsnaponopen" : 1,
		"statusbarvisible" : 2,
		"toolbarvisible" : 1,
		"lefttoolbarpinned" : 0,
		"toptoolbarpinned" : 0,
		"righttoolbarpinned" : 0,
		"bottomtoolbarpinned" : 0,
		"toolbars_unpinned_last_save" : 0,
		"tallnewobj" : 0,
		"boxanimatetime" : 200,
		"enablehscroll" : 1,
		"enablevscroll" : 1,
		"devicewidth" : 0.0,
		"description" : "",
		"digest" : "",
		"tags" : "",
		"style" : "",
		"subpatcher_template" : "",
		"assistshowspatchername" : 0,
		"boxes" : [ 			{
				"box" : 				{
					"id" : "obj-15",
					"linecount" : 2,
					"maxclass" : "comment",
					"numinlets" : 1,
					"numoutlets" : 0,
					"patching_rect" : [ 365.0, 218.0, 360.0, 33.0 ],
					"text" : "only one audio file per playlist~ can be playing at one time. Clicking play on another audio file will stop any other playing file."
				}

			}
, 			{
				"box" : 				{
					"id" : "obj-13",
					"maxclass" : "comment",
					"numinlets" : 1,
					"numoutlets" : 0,
					"patching_rect" : [ 611.0, 169.0, 411.0, 20.0 ],
					"text" : "use the icons to play/loop. Click and drag with mouse to select loop portions"
				}

			}
, 			{
				"box" : 				{
					"id" : "obj-10",
					"linecount" : 4,
					"maxclass" : "comment",
					"numinlets" : 1,
					"numoutlets" : 0,
					"patching_rect" : [ 92.0, 138.0, 313.0, 60.0 ],
					"text" : "Two ways to create a playlist~ object: drag audio files from the Max browser (left) or finder/desktop directly into an unlocked patcher; or add new object, type playlist~, then drag an audio file into it."
				}

			}
, 			{
				"box" : 				{
					"id" : "obj-4",
					"linecount" : 6,
					"maxclass" : "comment",
					"numinlets" : 1,
					"numoutlets" : 0,
					"patching_rect" : [ 23.0, 340.0, 150.0, 87.0 ],
					"text" : "audio files included with Max, or in the search path, can be found by clicking on the musical note icon here on the left border"
				}

			}
, 			{
				"box" : 				{
					"fontface" : 1,
					"fontsize" : 24.0,
					"id" : "obj-1",
					"maxclass" : "comment",
					"numinlets" : 1,
					"numoutlets" : 0,
					"patching_rect" : [ 662.0, 46.0, 251.0, 33.0 ],
					"text" : "playlist~: really basic"
				}

			}
, 			{
				"box" : 				{
					"basictuning" : 440,
					"clipheight" : 99.666666924953461,
					"data" : 					{
						"clips" : [ 							{
								"absolutepath" : "jongly.aif",
								"filename" : "jongly.aif",
								"filekind" : "audiofile",
								"id" : "u065006242",
								"loop" : 1,
								"content_state" : 								{
									"loop" : 1
								}

							}
 ]
					}
,
					"followglobaltempo" : 0,
					"formantcorrection" : 0,
					"id" : "obj-38",
					"maxclass" : "playlist~",
					"mode" : "basic",
					"numinlets" : 1,
					"numoutlets" : 5,
					"originallength" : [ 0.0, "ticks" ],
					"originaltempo" : 120.0,
					"outlettype" : [ "signal", "signal", "signal", "", "dictionary" ],
					"parameter_enable" : 0,
					"patching_rect" : [ 836.66666442155838, 258.666665196418762, 457.333339095115662, 100.666666924953461 ],
					"pitchcorrection" : 0,
					"quality" : "basic",
					"timestretch" : [ 0 ]
				}

			}
, 			{
				"box" : 				{
					"id" : "obj-34",
					"maxclass" : "comment",
					"numinlets" : 1,
					"numoutlets" : 0,
					"patching_rect" : [ 292.000008702278137, 284.666674077510834, 52.0, 20.0 ],
					"text" : "playlist~"
				}

			}
, 			{
				"box" : 				{
					"basictuning" : 440,
					"clipheight" : 49.33333346247673,
					"data" : 					{
						"clips" : [ 							{
								"absolutepath" : "huge.aiff",
								"filename" : "huge.aiff",
								"filekind" : "audiofile",
								"id" : "u568005286",
								"loop" : 1,
								"content_state" : 								{
									"loop" : 1
								}

							}
, 							{
								"absolutepath" : "isthatyou.aiff",
								"filename" : "isthatyou.aiff",
								"filekind" : "audiofile",
								"id" : "u834004238",
								"loop" : 1,
								"content_state" : 								{
									"loop" : 1
								}

							}
 ]
					}
,
					"followglobaltempo" : 0,
					"formantcorrection" : 0,
					"id" : "obj-32",
					"maxclass" : "playlist~",
					"mode" : "basic",
					"numinlets" : 1,
					"numoutlets" : 5,
					"originallength" : [ 0.0, "ticks" ],
					"originaltempo" : 120.0,
					"outlettype" : [ "signal", "signal", "signal", "", "dictionary" ],
					"parameter_enable" : 0,
					"patching_rect" : [ 353.333343863487244, 258.666665196418762, 454.333342492580414, 100.666666924953461 ],
					"pitchcorrection" : 0,
					"quality" : "basic",
					"timestretch" : [ 0 ]
				}

			}
, 			{
				"box" : 				{
					"id" : "obj-11",
					"maxclass" : "comment",
					"numinlets" : 1,
					"numoutlets" : 0,
					"patching_rect" : [ 762.333352029323578, 556.666683673858643, 63.0, 20.0 ],
					"text" : "live.gain~ "
				}

			}
, 			{
				"box" : 				{
					"id" : "obj-9",
					"lastchannelcount" : 0,
					"maxclass" : "live.gain~",
					"numinlets" : 2,
					"numoutlets" : 5,
					"outlettype" : [ "signal", "signal", "", "float", "list" ],
					"parameter_enable" : 1,
					"patching_rect" : [ 696.3333500623703, 499.333348631858826, 48.0, 136.0 ],
					"saved_attribute_attributes" : 					{
						"valueof" : 						{
							"parameter_longname" : "live.gain~",
							"parameter_mmax" : 6.0,
							"parameter_mmin" : -70.0,
							"parameter_shortname" : "live.gain~",
							"parameter_type" : 0,
							"parameter_unitstyle" : 4
						}

					}
,
					"varname" : "live.gain~"
				}

			}
, 			{
				"box" : 				{
					"id" : "obj-5",
					"maxclass" : "comment",
					"numinlets" : 1,
					"numoutlets" : 0,
					"patching_rect" : [ 808.333353400230408, 691.500020653009415, 48.0, 20.0 ],
					"text" : "ezdac~"
				}

			}
, 			{
				"box" : 				{
					"id" : "obj-3",
					"maxclass" : "ezdac~",
					"numinlets" : 2,
					"numoutlets" : 0,
					"patching_rect" : [ 696.3333500623703, 661.333353459835052, 80.333334386348724, 80.333334386348724 ]
				}

			}
 ],
		"lines" : [ 			{
				"patchline" : 				{
					"destination" : [ "obj-9", 1 ],
					"source" : [ "obj-32", 1 ]
				}

			}
, 			{
				"patchline" : 				{
					"destination" : [ "obj-9", 0 ],
					"source" : [ "obj-32", 0 ]
				}

			}
, 			{
				"patchline" : 				{
					"destination" : [ "obj-9", 1 ],
					"source" : [ "obj-38", 1 ]
				}

			}
, 			{
				"patchline" : 				{
					"destination" : [ "obj-9", 0 ],
					"source" : [ "obj-38", 0 ]
				}

			}
, 			{
				"patchline" : 				{
					"destination" : [ "obj-3", 1 ],
					"source" : [ "obj-9", 1 ]
				}

			}
, 			{
				"patchline" : 				{
					"destination" : [ "obj-3", 0 ],
					"source" : [ "obj-9", 0 ]
				}

			}
 ],
		"parameters" : 		{
			"obj-9" : [ "live.gain~", "live.gain~", 0 ],
			"parameterbanks" : 			{
				"0" : 				{
					"index" : 0,
					"name" : "",
					"parameters" : [ "-", "-", "-", "-", "-", "-", "-", "-" ]
				}

			}
,
			"inherited_shortname" : 1
		}
,
		"dependency_cache" : [ 			{
				"name" : "huge.aiff",
				"bootpath" : "C74:/docs/tutorial-patchers/msp-tut",
				"type" : "AIFF",
				"implicit" : 1
			}
, 			{
				"name" : "isthatyou.aiff",
				"bootpath" : "C74:/docs/tutorial-patchers/msp-tut",
				"type" : "AIFF",
				"implicit" : 1
			}
, 			{
				"name" : "jongly.aif",
				"bootpath" : "C74:/media/msp",
				"type" : "AIFF",
				"implicit" : 1
			}
 ],
		"autosave" : 0
	}

}
